<?xml version="1.0" encoding="utf-8"?>
<!-- Generated by IcoMoon.io -->
<!DOCTYPE svg PUBLIC "-//W3C//DTD SVG 1.1//EN" "http://www.w3.org/Graphics/SVG/1.1/DTD/svg11.dtd">
<svg version="1.1" xmlns="http://www.w3.org/2000/svg" xmlns:xlink="http://www.w3.org/1999/xlink" width="300" height="72" viewBox="0 0 300 72">
<svg id="icon-teal_ball" width="26" height="32" viewBox="0 0 26 32" x="0" y="0">
<path fill="#444444" d="M12.8 8.448c0 0.396-0.321 0.717-0.717 0.717s-0.717-0.321-0.717-0.717c0-0.396 0.321-0.717 0.717-0.717s0.717 0.321 0.717 0.717z"></path>
<path fill="#444444" d="M13.651 6.418c-0.122 0.332-0.522 0.49-0.893 0.354s-0.574-0.516-0.453-0.848c0.122-0.332 0.522-0.49 0.893-0.354s0.574 0.516 0.453 0.848z"></path>
<path fill="#444444" d="M11.348 5.476c-0.227 0.271-0.604 0.329-0.843 0.129s-0.248-0.581-0.021-0.852c0.227-0.271 0.604-0.329 0.843-0.129s0.248 0.581 0.021 0.852z"></path>
<path fill="#444444" d="M15.659 6.919c-0.053 0.349-0.345 0.595-0.653 0.548s-0.514-0.368-0.461-0.717c0.053-0.349 0.345-0.595 0.653-0.548s0.514 0.368 0.461 0.717z"></path>
<path fill="#444444" d="M14.717 9.076c-0.046 0.393-0.333 0.683-0.642 0.647s-0.523-0.384-0.477-0.777c0.046-0.393 0.333-0.683 0.642-0.647s0.523 0.384 0.477 0.777z"></path>
<path fill="#444444" d="M10.573 7.731c-0.205 0.333-0.589 0.486-0.845 0.307-0.256-0.154-0.307-0.563-0.102-0.896s0.589-0.486 0.845-0.307c0.256 0.154 0.307 0.563 0.102 0.896z"></path>
<path fill="#444444" d="M9.037 6.63c-0.256 0.307-0.64 0.41-0.819 0.23s-0.128-0.538 0.128-0.845c0.256-0.307 0.64-0.41 0.819-0.23s0.128 0.563-0.128 0.845z"></path>
<path fill="#444444" d="M16.23 9.216c-0.051 0.358-0.282 0.64-0.486 0.589-0.205-0.026-0.333-0.358-0.256-0.717 0.051-0.358 0.282-0.64 0.486-0.589 0.179 0.026 0.307 0.358 0.256 0.717z"></path>
<path fill="#444444" d="M8.883 11.136c-0.179 0.205-0.512 0.205-0.742 0s-0.282-0.538-0.128-0.742c0.179-0.205 0.512-0.205 0.742-0.026 0.256 0.23 0.307 0.563 0.128 0.768z"></path>
<path fill="#444444" d="M13.645 12.493c0 0.282-0.23 0.512-0.563 0.512-0.307 0-0.563-0.205-0.589-0.486 0-0.282 0.23-0.512 0.563-0.512s0.589 0.205 0.589 0.486z"></path>
<path fill="#444444" d="M11.213 12.544c-0.128 0.282-0.512 0.41-0.87 0.256s-0.563-0.486-0.461-0.794c0.102-0.282 0.512-0.41 0.87-0.256s0.563 0.512 0.461 0.794z"></path>
<path fill="#444444" d="M22.298 15.309c-0.256-0.691-0.794-1.152-1.357-1.229 0.026-0.179 0-0.384-0.051-0.589-0.102-0.41-0.358-0.794-0.717-1.126-0.41-0.358-0.87-0.589-1.331-0.64-0.128-0.589-0.614-1.075-0.922-1.306 0.154-0.614 0.23-1.254 0.205-1.92-0.077-1.69-0.819-3.277-2.074-4.429-1.178-1.075-2.714-1.664-4.301-1.664-1.792 0-3.507 0.768-4.71 2.074-2.304 2.534-2.176 6.426 0.205 8.806-2.765 0.026-4.966 0.486-4.966 1.126s2.278 1.203 5.12 1.229c1.792 0.026 3.379-0.154 4.301-0.461h0.051c1.715 0 3.379-0.691 4.582-1.92 0.282 0.205 0.794 0.435 1.382 0.23 0.128 0.307 0.358 0.614 0.64 0.87 0.41 0.384 0.896 0.614 1.357 0.64 0 0 0 0 0 0-0.102 0.384-0.077 0.819 0.077 1.229 0.077 0.205 0.179 0.384 0.307 0.563-0.205 0.077-0.384 0.205-0.538 0.358-0.154 0.179-0.282 0.384-0.333 0.614-0.256-0.154-0.563-0.23-0.896-0.256-0.589-0.051-1.126 0.154-1.459 0.486-0.179-0.358-0.486-0.666-0.922-0.845-0.256-0.128-0.563-0.179-0.845-0.179-0.333 0-0.64 0.102-0.87 0.256-0.179-0.384-0.538-0.768-1.050-0.998-0.307-0.154-0.64-0.23-0.947-0.23-0.563 0-0.998 0.23-1.178 0.64 0 0.026-0.026 0.051-0.026 0.051-0.205-0.128-0.461-0.205-0.717-0.205-0.41 0-0.794 0.179-1.075 0.486-0.538 0.589-0.486 1.51 0.102 2.048 0.23 0.205 0.512 0.333 0.819 0.358-0.128 0.589 0.256 1.28 0.973 1.715 0.358 0.205 0.742 0.333 1.126 0.333 0.461 0 0.845-0.205 1.050-0.512 0.026-0.051 0.077-0.128 0.077-0.205l3.021 1.050c0.154 0.051 0.41 0.205 0.307 0.486-0.128 0.384-0.41 0.358-0.589 0.307l-1.946-0.589-0.23 0.742 1.92 0.589c0.026 0 0.205 0.077 0.435 0.077 0.154 0 0.333-0.026 0.512-0.102 0.205-0.102 0.461-0.307 0.614-0.717 0.102-0.307 0.102-0.589-0.026-0.845-0.205-0.435-0.691-0.614-0.742-0.64l-3.354-1.126c-0.154-0.358-0.461-0.717-0.896-0.973-0.256-0.154-0.538-0.256-0.819-0.307 0.051-0.102 0.102-0.205 0.128-0.333 0.128 0.077 0.256 0.179 0.41 0.23 0.307 0.154 0.64 0.23 0.947 0.23 0.333 0 0.614-0.077 0.845-0.23 0.026 0.051 0.051 0.128 0.077 0.179 0.179 0.333 0.486 0.589 0.87 0.768 0.256 0.128 0.563 0.179 0.845 0.179 0.358 0 0.691-0.102 0.922-0.307 0.077 0.154 0.205 0.307 0.358 0.435 0.307 0.256 0.717 0.41 1.152 0.435 0.051 0 0.102 0 0.154 0 0.717 0 1.331-0.333 1.562-0.845 0.23 0.128 0.486 0.205 0.768 0.205 0.41 0 0.794-0.179 1.075-0.486 0.461-0.512 0.486-1.254 0.128-1.792 0.563-0.333 0.794-1.178 0.461-2.022zM15.488 12.211c-0.947 1.050-2.304 1.638-3.738 1.638-0.077 0-0.154 0-0.23 0v0c-0.538-0.026-1.075-0.128-1.587-0.333-0.563-0.23-1.101-0.538-1.562-0.973-1.203-1.101-1.766-2.662-1.613-4.198 1.357 1.28 4.198 3.405 8.038 3.405 0.358 0 0.742-0.026 1.126-0.051-0.154 0.179-0.282 0.333-0.435 0.512zM16.589 10.24c-4.992 0.998-8.525-2.381-9.472-3.405 0.205-0.512 0.512-0.973 0.896-1.408 0.947-1.050 2.304-1.638 3.738-1.638 1.254 0 2.458 0.461 3.405 1.306 0.998 0.896 1.587 2.15 1.638 3.482 0.026 0.563-0.051 1.126-0.205 1.664zM9.83 18.509c-0.282-0.256-0.307-0.691-0.051-0.973 0.128-0.154 0.307-0.23 0.512-0.23 0.179 0 0.333 0.077 0.461 0.179 0.128 0.128 0.205 0.307 0.23 0.486 0 0.179-0.051 0.358-0.179 0.486-0.23 0.256-0.691 0.282-0.973 0.051zM12.006 19.61c0.486 0.282 0.717 0.742 0.589 0.947-0.051 0.102-0.205 0.154-0.384 0.154-0.23 0-0.486-0.077-0.742-0.23-0.486-0.282-0.717-0.742-0.589-0.947 0.051-0.102 0.205-0.154 0.384-0.154 0.256 0.026 0.512 0.102 0.742 0.23zM13.568 17.818c-0.051 0.128-0.256 0.205-0.486 0.205-0.205 0-0.435-0.051-0.64-0.154-0.512-0.23-0.794-0.666-0.691-0.87 0.051-0.128 0.23-0.205 0.486-0.205 0.205 0 0.435 0.051 0.64 0.154 0.486 0.23 0.768 0.666 0.691 0.87zM16.179 18.688c-0.102 0.23-0.589 0.282-0.998 0.102-0.23-0.102-0.41-0.256-0.512-0.435-0.051-0.077-0.102-0.23-0.051-0.384 0.051-0.128 0.256-0.205 0.486-0.205 0.179 0 0.333 0.051 0.512 0.128 0.461 0.179 0.666 0.563 0.563 0.794zM18.176 19.456c-0.282-0.026-0.538-0.102-0.717-0.256-0.077-0.077-0.23-0.205-0.205-0.384 0.026-0.282 0.435-0.512 0.896-0.512 0.026 0 0.077 0 0.102 0 0.563 0.026 0.947 0.358 0.922 0.64 0 0.307-0.461 0.538-0.998 0.512zM19.84 14.259c-0.282 0-0.666-0.179-0.973-0.435-0.23-0.23-0.41-0.486-0.486-0.742 0 0 0-0.026 0-0.026-0.051-0.205-0.051-0.358 0.051-0.461 0.077-0.077 0.205-0.102 0.282-0.102 0.026 0 0.051 0 0.077 0 0.282 0.026 0.589 0.205 0.87 0.435 0.256 0.23 0.435 0.512 0.512 0.768 0.051 0.205 0.051 0.358-0.051 0.461-0.077 0.077-0.205 0.102-0.282 0.102zM21.12 18.611c-0.256 0.282-0.691 0.282-0.973 0.051-0.128-0.128-0.205-0.282-0.23-0.486 0-0.179 0.051-0.358 0.179-0.486s0.307-0.23 0.512-0.23c0.179 0 0.333 0.077 0.461 0.179 0.282 0.256 0.307 0.691 0.051 0.973zM21.376 16.691c-0.026 0-0.077 0.026-0.128 0.026-0.23 0-0.589-0.256-0.768-0.717-0.102-0.256-0.128-0.538-0.051-0.768 0.026-0.102 0.102-0.282 0.256-0.358 0.026-0.026 0.077-0.026 0.128-0.026 0.23 0 0.589 0.256 0.768 0.717 0.205 0.563 0.051 1.024-0.205 1.126z"></path>
</svg>
<svg id="icon-teapot" width="26" height="32" viewBox="0 0 26 32" x="52" y="0">
<path fill="#444444" d="M22.912 20.992c0.333-0.486 0.538-1.101 0.538-1.741v-6.733c0-1.408-0.922-2.586-2.202-2.97 0.358-0.64 0.538-1.357 0.538-2.074 0-1.869-1.229-3.533-3.046-4.454-0.051-0.614-0.461-1.126-0.947-1.126l-4.992-0.026c-0.256 0-0.512 0.128-0.691 0.358-0.154 0.179-0.256 0.435-0.282 0.717-1.843 0.922-3.098 2.586-3.098 4.506 0 0.742 0.179 1.434 0.512 2.074-1.28 0.384-2.227 1.587-2.227 2.995v0.384c0 0 0 0 0 0-0.128 0.102-0.358 0-0.461-0.154-1.51-2.406-3.917-2.816-3.994-2.816l-0.742-0.102v4.070l0.358 0.179c0.819 0.41 1.050 1.101 1.306 1.894 0.282 0.896 0.614 1.894 1.818 2.458 0.077 0.051 0.256 0.128 1.126 0.154 0.333 0.026 0.614 0.307 0.614 0.64v0.026c0 0.358 0.051 0.691 0.154 0.998-3.277 0.282-5.478 0.819-5.478 1.408-0.026 0.896 4.941 1.638 11.085 1.664 6.118 0 11.085-0.717 11.085-1.638 0-0.256-0.358-0.486-0.973-0.691zM12.288 4.147c0.154 0.128 0.333 0.205 0.512 0.205h4.941c0.179 0 0.333-0.051 0.486-0.179 1.357 0.717 2.253 1.92 2.253 3.277 0 0.691-0.23 1.357-0.666 1.946h-1.664c-0.128 0-0.23-0.077-0.256-0.179-0.358-1.178-1.434-1.946-2.637-1.946-1.229 0-2.33 0.819-2.662 2.022-0.026 0.051-0.102 0.102-0.179 0.102h-1.715c-0.435-0.589-0.666-1.254-0.666-1.946-0.026-1.382 0.87-2.586 2.253-3.302zM10.086 10.675c0 0 0.026 0 0 0 0.026 0 0.026 0 0.051 0h2.253c0.666 0 1.254-0.435 1.434-1.050 0.179-0.64 0.768-1.075 1.434-1.075s1.229 0.435 1.434 1.050c0.205 0.64 0.794 1.075 1.485 1.075h2.176c0.64 0 1.229 0.333 1.536 0.845h-13.286c0.307-0.486 0.845-0.845 1.485-0.845zM22.144 19.251c0 0.563-0.256 1.050-0.64 1.382-0.333 0.282-0.742 0.435-1.203 0.435h-10.189c-0.691 0-1.28-0.384-1.613-0.947-0.154-0.256-0.23-0.563-0.23-0.896v-0.026c0-1.024-0.794-1.869-1.843-1.92-0.358-0.026-0.589-0.026-0.691-0.051-0.614-0.307-0.819-0.845-1.101-1.664-0.256-0.794-0.589-1.792-1.587-2.432v-1.715c0.666 0.282 1.638 0.845 2.381 1.997 0.307 0.486 0.845 0.794 1.408 0.794 0.333 0 0.64-0.102 0.896-0.282 0.333-0.256 0.538-0.614 0.538-1.024v-0.384c0-0.128 0.026-0.256 0.051-0.384h13.773c0.026 0.128 0.051 0.256 0.051 0.41v6.707z"></path>
<path fill="#444444" d="M21.043 15.104v3.072c0 0.998-0.819 1.843-1.843 1.843h-7.808v-0.589h7.808c0.691 0 1.254-0.563 1.254-1.254v-3.072h0.589z"></path>
</svg>
<svg id="icon-heart-outlined" width="20" height="20" viewBox="0 0 20 20" x="0" y="52">
<path fill="#444444" d="M17.19 4.156c-1.672-1.535-4.383-1.535-6.055 0l-1.135 1.041-1.136-1.041c-1.672-1.535-4.382-1.535-6.054 0-1.881 1.726-1.881 4.519 0 6.245l7.19 6.599 7.19-6.599c1.88-1.726 1.88-4.52 0-6.245zM16.124 9.375l-6.124 5.715-6.125-5.715c-0.617-0.567-0.856-1.307-0.856-2.094s0.138-1.433 0.756-1.999c0.545-0.501 1.278-0.777 2.063-0.777s1.517 0.476 2.062 0.978l2.1 1.825 2.099-1.826c0.546-0.502 1.278-0.978 2.063-0.978s1.518 0.276 2.063 0.777c0.618 0.566 0.755 1.212 0.755 1.999s-0.238 1.528-0.856 2.095z"></path>
</svg>
<svg id="icon-leaf" width="20" height="20" viewBox="0 0 20 20" x="40" y="52">
<path fill="#444444" d="M19.025 3.587c-4.356 2.556-4.044 7.806-7.096 10.175-2.297 1.783-5.538 0.88-7.412 0.113 0 0-1.27 1.603-2.181 3.74-0.305 0.717-1.644-0.073-1.409-0.68 2.978-7.685 13.11-11.519 13.11-11.519s-7.149-0.303-11.927 5.94c-0.128-1.426-0.34-5.284 3.36-7.65 5.016-3.211 14.572-0.715 13.555-0.119z"></path>
</svg>
<svg id="icon-location" width="20" height="20" viewBox="0 0 20 20" x="80" y="52">
<path fill="#444444" d="M19.367 18.102l-1.367-4.102h-1.5l0.833 4h-14.666l0.833-4h-1.5l-1.368 4.102c-0.347 1.044 0.268 1.898 1.368 1.898h16c1.1 0 1.715-0.854 1.367-1.898zM15 5c0-2.761-2.238-5-5-5s-5 2.239-5 5c0 4.775 5 10 5 10s5-5.225 5-10zM7.3 5.060c0-1.491 1.208-2.699 2.7-2.699s2.7 1.208 2.7 2.699c0 1.492-1.209 2.7-2.7 2.7s-2.7-1.209-2.7-2.7z"></path>
</svg>
<svg id="icon-old-phone" width="20" height="20" viewBox="0 0 20 20" x="120" y="52">
<path fill="#444444" d="M17.256 12.253c-0.096-0.667-0.611-1.187-1.274-1.342-2.577-0.604-3.223-2.088-3.332-3.734-0.457-0.085-1.27-0.177-2.65-0.177s-2.193 0.092-2.65 0.177c-0.109 1.646-0.755 3.13-3.332 3.734-0.663 0.156-1.178 0.675-1.274 1.342l-0.497 3.442c-0.175 1.212 0.715 2.305 1.953 2.305h11.6c1.237 0 2.128-1.093 1.953-2.305l-0.497-3.442zM10 15.492c-1.395 0-2.526-1.12-2.526-2.5s1.131-2.5 2.526-2.5 2.526 1.12 2.526 2.5-1.132 2.5-2.526 2.5zM19.95 6c-0.024-1.5-3.842-3.999-9.95-4-6.109 0.001-9.927 2.5-9.95 4s0.021 3.452 2.535 3.127c2.941-0.381 2.76-1.408 2.76-2.876 0-1.024 2.392-1.271 4.655-1.271s4.654 0.247 4.655 1.271c0 1.468-0.181 2.495 2.76 2.876 2.513 0.325 2.558-1.627 2.535-3.127z"></path>
</svg>
<svg id="icon-shop" width="20" height="20" viewBox="0 0 20 20" x="160" y="52">
<path fill="#444444" d="M6.123 7.25l0.791-5.25h-4.114l-1.719 4.5c-0.053 0.16-0.081 0.326-0.081 0.5 0 1.104 1.15 2 2.571 2 1.31 0 2.393-0.764 2.552-1.75zM10 9c1.42 0 2.571-0.896 2.571-2 0-0.041-0.003-0.082-0.005-0.121l-0.509-4.879h-4.114l-0.51 4.875c-0.002 0.041-0.004 0.082-0.004 0.125 0 1.104 1.151 2 2.571 2zM15 10.046v3.954h-10v-3.948c-0.438 0.158-0.92 0.248-1.429 0.248-0.195 0-0.384-0.023-0.571-0.049v6.349c0 0.77 0.629 1.4 1.398 1.4h11.202c0.77 0 1.4-0.631 1.4-1.4v-6.348c-0.188 0.025-0.376 0.049-0.571 0.049-0.506-0.001-0.99-0.093-1.429-0.255zM18.92 6.5l-1.721-4.5h-4.113l0.79 5.242c0.154 0.99 1.237 1.758 2.553 1.758 1.42 0 2.571-0.896 2.571-2 0-0.174-0.028-0.34-0.080-0.5z"></path>
</svg>
<svg id="icon-facebook-with-circle" width="20" height="20" viewBox="0 0 20 20" x="200" y="52">
<path fill="#444444" d="M10 0.4c-5.302 0-9.6 4.298-9.6 9.6s4.298 9.6 9.6 9.6 9.6-4.298 9.6-9.6-4.298-9.6-9.6-9.6zM12.274 7.034h-1.443c-0.171 0-0.361 0.225-0.361 0.524v1.042h1.805l-0.273 1.486h-1.532v4.461h-1.703v-4.461h-1.545v-1.486h1.545v-0.874c0-1.254 0.87-2.273 2.064-2.273h1.443v1.581z"></path>
</svg>
<svg id="icon-twitter-with-circle" width="20" height="20" viewBox="0 0 20 20" x="240" y="52">
<path fill="#444444" d="M10 0.4c-5.302 0-9.6 4.298-9.6 9.6s4.298 9.6 9.6 9.6 9.6-4.298 9.6-9.6-4.298-9.6-9.6-9.6zM13.905 8.264c0.004 0.082 0.005 0.164 0.005 0.244 0 2.5-1.901 5.381-5.379 5.381-1.068 0-2.062-0.312-2.898-0.85 0.147 0.018 0.298 0.025 0.451 0.025 0.886 0 1.701-0.301 2.348-0.809-0.827-0.016-1.525-0.562-1.766-1.312 0.115 0.021 0.233 0.033 0.355 0.033 0.172 0 0.34-0.023 0.498-0.066-0.865-0.174-1.517-0.938-1.517-1.854v-0.023c0.255 0.141 0.547 0.227 0.857 0.237-0.508-0.34-0.841-0.918-0.841-1.575 0-0.346 0.093-0.672 0.256-0.951 0.933 1.144 2.325 1.896 3.897 1.977-0.033-0.139-0.049-0.283-0.049-0.432 0-1.043 0.846-1.891 1.891-1.891 0.543 0 1.035 0.23 1.38 0.598 0.431-0.086 0.835-0.242 1.2-0.459-0.141 0.441-0.44 0.812-0.831 1.047 0.383-0.047 0.747-0.148 1.086-0.299-0.253 0.379-0.574 0.713-0.943 0.979z"></path>
</svg>
</svg>
